<svg xmlns="http://www.w3.org/2000/svg" xmlns:xlink="http://www.w3.org/1999/xlink" width="600" zoomAndPan="magnify" viewBox="0 0 450 449.999984" height="600" preserveAspectRatio="xMidYMid meet" version="1.0"><defs><g/><clipPath id="74eb3087c5"><path d="M 12.964844 0 L 437.78125 0 L 437.78125 184.917969 L 12.964844 184.917969 Z M 12.964844 0 " clip-rule="nonzero"/></clipPath><clipPath id="4a7285537e"><path d="M 12.964844 247.203125 L 437.78125 247.203125 L 437.78125 450 L 12.964844 450 Z M 12.964844 247.203125 " clip-rule="nonzero"/></clipPath><clipPath id="53211a2cf3"><path d="M 16.316406 251.769531 L 113 251.769531 L 113 274 L 16.316406 274 Z M 16.316406 251.769531 " clip-rule="nonzero"/></clipPath></defs><rect x="-45" width="540" fill="#ffffff" y="-44.999998" height="539.99998" fill-opacity="1"/><rect x="-45" width="540" fill="#525659" y="-44.999998" height="539.99998" fill-opacity="1"/><g clip-path="url(#74eb3087c5)"><path fill="#fdfdfd" d="M 12.964844 0 L 437.695312 0 L 437.695312 184.917969 L 12.964844 184.917969 Z M 12.964844 0 " fill-opacity="1" fill-rule="nonzero"/></g><g clip-path="url(#4a7285537e)"><path fill="#fdfdfd" d="M 12.964844 247.203125 L 437.570312 247.203125 L 437.570312 450 L 12.964844 450 Z M 12.964844 247.203125 " fill-opacity="1" fill-rule="nonzero"/></g><path fill="#e6e6e6" d="M 429.210938 28.382812 L 22.339844 28.382812 C 22.121094 28.382812 21.9375 28.304688 21.78125 28.152344 C 21.625 27.996094 21.550781 27.808594 21.550781 27.589844 C 21.550781 27.371094 21.625 27.1875 21.78125 27.03125 C 21.9375 26.878906 22.121094 26.800781 22.339844 26.800781 L 429.210938 26.800781 C 429.429688 26.800781 429.613281 26.878906 429.769531 27.03125 C 429.925781 27.1875 430 27.371094 430 27.589844 C 430 27.808594 429.925781 27.996094 429.769531 28.152344 C 429.613281 28.304688 429.429688 28.382812 429.210938 28.382812 Z M 429.210938 28.382812 " fill-opacity="1" fill-rule="nonzero"/><path fill="#e6e6e6" d="M 429.210938 60.03125 L 22.339844 60.03125 C 22.121094 60.03125 21.9375 59.953125 21.78125 59.800781 C 21.625 59.644531 21.550781 59.460938 21.550781 59.242188 C 21.550781 59.023438 21.625 58.835938 21.78125 58.679688 C 21.9375 58.527344 22.121094 58.449219 22.339844 58.449219 L 429.210938 58.449219 C 429.429688 58.449219 429.613281 58.527344 429.769531 58.679688 C 429.925781 58.835938 430 59.023438 430 59.242188 C 430 59.460938 429.925781 59.644531 429.769531 59.800781 C 429.613281 59.953125 429.429688 60.03125 429.210938 60.03125 Z M 429.210938 60.03125 " fill-opacity="1" fill-rule="nonzero"/><path fill="#e6e6e6" d="M 429.210938 91.683594 L 22.339844 91.683594 C 22.121094 91.683594 21.9375 91.605469 21.78125 91.449219 C 21.625 91.296875 21.550781 91.109375 21.550781 90.890625 C 21.550781 90.671875 21.625 90.484375 21.78125 90.332031 C 21.9375 90.175781 22.121094 90.097656 22.339844 90.097656 L 429.210938 90.097656 C 429.429688 90.097656 429.613281 90.175781 429.769531 90.332031 C 429.925781 90.484375 430 90.671875 430 90.890625 C 430 91.109375 429.925781 91.296875 429.769531 91.449219 C 429.613281 91.605469 429.429688 91.683594 429.210938 91.683594 Z M 429.210938 91.683594 " fill-opacity="1" fill-rule="nonzero"/><path fill="#e6e6e6" d="M 429.210938 123.332031 L 22.339844 123.332031 C 22.121094 123.332031 21.9375 123.253906 21.78125 123.101562 C 21.625 122.945312 21.550781 122.757812 21.550781 122.539062 C 21.550781 122.320312 21.625 122.136719 21.78125 121.980469 C 21.9375 121.824219 22.121094 121.75 22.339844 121.75 L 429.210938 121.75 C 429.429688 121.75 429.613281 121.824219 429.769531 121.980469 C 429.925781 122.136719 430 122.320312 430 122.539062 C 430 122.757812 429.925781 122.945312 429.769531 123.101562 C 429.613281 123.253906 429.429688 123.332031 429.210938 123.332031 Z M 429.210938 123.332031 " fill-opacity="1" fill-rule="nonzero"/><path fill="#e6e6e6" d="M 118.6875 124.5625 C 118.46875 124.5625 118.285156 124.484375 118.128906 124.332031 C 117.976562 124.179688 117.898438 123.992188 117.894531 123.777344 L 117.105469 -4.40625 C 117.101562 -4.625 117.179688 -4.8125 117.332031 -4.964844 C 117.484375 -5.121094 117.671875 -5.199219 117.890625 -5.203125 L 117.894531 -5.203125 C 118.113281 -5.203125 118.300781 -5.125 118.453125 -4.972656 C 118.609375 -4.816406 118.6875 -4.632812 118.6875 -4.414062 L 119.480469 123.765625 C 119.480469 123.984375 119.40625 124.171875 119.25 124.328125 C 119.097656 124.484375 118.910156 124.5625 118.691406 124.5625 Z M 118.6875 124.5625 " fill-opacity="1" fill-rule="nonzero"/><path fill="#e6e6e6" d="M 228.792969 124.5625 C 228.578125 124.5625 228.390625 124.484375 228.234375 124.332031 C 228.082031 124.179688 228.003906 123.992188 228.003906 123.777344 L 227.210938 -4.40625 C 227.207031 -4.625 227.285156 -4.8125 227.4375 -4.964844 C 227.59375 -5.121094 227.777344 -5.199219 227.996094 -5.203125 L 228.003906 -5.203125 C 228.21875 -5.203125 228.40625 -5.125 228.5625 -4.972656 C 228.714844 -4.816406 228.792969 -4.632812 228.792969 -4.414062 L 229.585938 123.765625 C 229.585938 123.984375 229.511719 124.171875 229.359375 124.328125 C 229.203125 124.484375 229.019531 124.5625 228.800781 124.5625 Z M 228.792969 124.5625 " fill-opacity="1" fill-rule="nonzero"/><path fill="#e6e6e6" d="M 338.902344 124.5625 C 338.683594 124.5625 338.496094 124.484375 338.34375 124.332031 C 338.1875 124.179688 338.109375 123.992188 338.109375 123.777344 L 337.316406 -4.40625 C 337.316406 -4.625 337.390625 -4.8125 337.542969 -4.964844 C 337.699219 -5.121094 337.882812 -5.199219 338.101562 -5.203125 L 338.109375 -5.203125 C 338.328125 -5.203125 338.511719 -5.125 338.667969 -4.972656 C 338.820312 -4.816406 338.898438 -4.632812 338.902344 -4.414062 L 339.691406 123.765625 C 339.695312 123.984375 339.617188 124.171875 339.464844 124.328125 C 339.308594 124.484375 339.125 124.5625 338.90625 124.5625 Z M 338.902344 124.5625 " fill-opacity="1" fill-rule="nonzero"/><path fill="#6d0076" d="M 83.085938 20.910156 L 52.898438 20.910156 C 52.328125 20.910156 51.765625 20.855469 51.207031 20.746094 C 50.644531 20.632812 50.101562 20.472656 49.578125 20.253906 C 49.050781 20.035156 48.550781 19.769531 48.074219 19.453125 C 47.601562 19.136719 47.164062 18.777344 46.761719 18.378906 C 46.355469 17.976562 45.996094 17.539062 45.679688 17.0625 C 45.363281 16.589844 45.09375 16.089844 44.878906 15.566406 C 44.660156 15.039062 44.496094 14.496094 44.382812 13.941406 C 44.273438 13.382812 44.214844 12.816406 44.214844 12.25 C 44.214844 11.679688 44.273438 11.117188 44.382812 10.558594 C 44.496094 10 44.660156 9.457031 44.878906 8.929688 C 45.09375 8.40625 45.363281 7.90625 45.679688 7.433594 C 45.996094 6.960938 46.355469 6.523438 46.761719 6.121094 C 47.164062 5.71875 47.601562 5.359375 48.074219 5.042969 C 48.550781 4.726562 49.050781 4.460938 49.578125 4.242188 C 50.101562 4.027344 50.644531 3.863281 51.207031 3.753906 C 51.765625 3.640625 52.328125 3.585938 52.898438 3.585938 L 83.085938 3.585938 C 83.65625 3.585938 84.21875 3.640625 84.777344 3.753906 C 85.335938 3.863281 85.878906 4.027344 86.40625 4.242188 C 86.933594 4.460938 87.433594 4.726562 87.90625 5.042969 C 88.382812 5.359375 88.820312 5.71875 89.222656 6.121094 C 89.628906 6.523438 89.988281 6.960938 90.304688 7.433594 C 90.621094 7.90625 90.886719 8.40625 91.105469 8.929688 C 91.324219 9.457031 91.488281 10 91.601562 10.558594 C 91.710938 11.117188 91.769531 11.679688 91.769531 12.25 C 91.769531 12.816406 91.710938 13.382812 91.601562 13.941406 C 91.488281 14.496094 91.324219 15.039062 91.105469 15.566406 C 90.886719 16.089844 90.621094 16.589844 90.304688 17.0625 C 89.988281 17.539062 89.628906 17.976562 89.222656 18.378906 C 88.820312 18.777344 88.382812 19.136719 87.90625 19.453125 C 87.433594 19.769531 86.933594 20.035156 86.40625 20.253906 C 85.878906 20.472656 85.335938 20.632812 84.777344 20.746094 C 84.21875 20.855469 83.65625 20.910156 83.085938 20.910156 Z M 83.085938 20.910156 " fill-opacity="1" fill-rule="nonzero"/><path fill="#6d0076" d="M 188.4375 51.769531 L 158.253906 51.769531 C 157.683594 51.769531 157.117188 51.710938 156.558594 51.601562 C 156.003906 51.492188 155.460938 51.328125 154.933594 51.109375 C 154.40625 50.890625 153.910156 50.625 153.433594 50.308594 C 152.960938 49.992188 152.523438 49.632812 152.121094 49.230469 C 151.71875 48.828125 151.359375 48.390625 151.042969 47.917969 C 150.726562 47.445312 150.460938 46.945312 150.242188 46.421875 C 150.023438 45.894531 149.859375 45.355469 149.746094 44.796875 C 149.636719 44.238281 149.582031 43.675781 149.582031 43.105469 C 149.582031 42.539062 149.636719 41.976562 149.746094 41.417969 C 149.859375 40.859375 150.023438 40.316406 150.242188 39.792969 C 150.460938 39.265625 150.726562 38.769531 151.042969 38.296875 C 151.359375 37.824219 151.71875 37.386719 152.121094 36.984375 C 152.523438 36.582031 152.960938 36.222656 153.433594 35.90625 C 153.910156 35.589844 154.40625 35.324219 154.933594 35.105469 C 155.460938 34.886719 156.003906 34.722656 156.558594 34.613281 C 157.117188 34.5 157.683594 34.445312 158.253906 34.445312 L 188.4375 34.445312 C 189.007812 34.445312 189.574219 34.5 190.132812 34.609375 C 190.691406 34.722656 191.234375 34.882812 191.761719 35.101562 C 192.285156 35.320312 192.789062 35.585938 193.261719 35.902344 C 193.734375 36.21875 194.175781 36.578125 194.578125 36.980469 C 194.980469 37.382812 195.339844 37.820312 195.65625 38.292969 C 195.972656 38.765625 196.242188 39.265625 196.460938 39.789062 C 196.679688 40.316406 196.84375 40.859375 196.953125 41.414062 C 197.066406 41.972656 197.121094 42.539062 197.121094 43.105469 C 197.121094 43.675781 197.066406 44.238281 196.953125 44.796875 C 196.84375 45.355469 196.679688 45.898438 196.460938 46.425781 C 196.242188 46.949219 195.972656 47.449219 195.65625 47.921875 C 195.339844 48.394531 194.980469 48.832031 194.578125 49.234375 C 194.175781 49.636719 193.734375 49.996094 193.261719 50.3125 C 192.789062 50.628906 192.285156 50.894531 191.761719 51.113281 C 191.234375 51.328125 190.691406 51.492188 190.132812 51.605469 C 189.574219 51.714844 189.007812 51.769531 188.4375 51.769531 Z M 188.4375 51.769531 " fill-opacity="1" fill-rule="nonzero"/><path fill="#6d0076" d="M 188.4375 85.792969 L 158.253906 85.792969 C 157.683594 85.792969 157.117188 85.738281 156.558594 85.628906 C 156 85.519531 155.457031 85.355469 154.929688 85.136719 C 154.402344 84.917969 153.902344 84.652344 153.425781 84.335938 C 152.953125 84.023438 152.511719 83.664062 152.109375 83.261719 C 151.707031 82.859375 151.347656 82.421875 151.027344 81.949219 C 150.710938 81.472656 150.445312 80.976562 150.226562 80.449219 C 150.007812 79.921875 149.84375 79.378906 149.730469 78.820312 C 149.621094 78.265625 149.5625 77.699219 149.5625 77.128906 C 149.5625 76.5625 149.621094 75.996094 149.730469 75.4375 C 149.84375 74.878906 150.007812 74.339844 150.226562 73.8125 C 150.445312 73.285156 150.710938 72.785156 151.027344 72.3125 C 151.347656 71.839844 151.707031 71.402344 152.109375 71 C 152.511719 70.597656 152.953125 70.238281 153.425781 69.921875 C 153.902344 69.609375 154.402344 69.339844 154.929688 69.125 C 155.457031 68.90625 156 68.742188 156.558594 68.632812 C 157.117188 68.523438 157.683594 68.46875 158.253906 68.46875 L 188.4375 68.46875 C 189.007812 68.46875 189.574219 68.523438 190.132812 68.632812 C 190.691406 68.742188 191.234375 68.90625 191.761719 69.125 C 192.289062 69.339844 192.789062 69.609375 193.265625 69.921875 C 193.738281 70.238281 194.175781 70.597656 194.582031 71 C 194.984375 71.402344 195.34375 71.839844 195.660156 72.3125 C 195.976562 72.785156 196.246094 73.285156 196.464844 73.8125 C 196.683594 74.339844 196.847656 74.878906 196.960938 75.4375 C 197.070312 75.996094 197.125 76.5625 197.125 77.128906 C 197.125 77.699219 197.070312 78.265625 196.960938 78.824219 C 196.847656 79.378906 196.683594 79.921875 196.464844 80.449219 C 196.246094 80.976562 195.976562 81.472656 195.660156 81.949219 C 195.34375 82.421875 194.984375 82.859375 194.582031 83.261719 C 194.175781 83.664062 193.738281 84.023438 193.265625 84.335938 C 192.789062 84.652344 192.289062 84.917969 191.761719 85.136719 C 191.234375 85.355469 190.691406 85.519531 190.132812 85.628906 C 189.574219 85.738281 189.007812 85.792969 188.4375 85.792969 Z M 188.4375 85.792969 " fill-opacity="1" fill-rule="nonzero"/><path fill="#6d0076" d="M 300.921875 21.699219 L 270.734375 21.699219 C 270.164062 21.699219 269.601562 21.644531 269.042969 21.535156 C 268.484375 21.421875 267.941406 21.257812 267.417969 21.042969 C 266.890625 20.824219 266.390625 20.558594 265.917969 20.242188 C 265.445312 19.925781 265.007812 19.566406 264.605469 19.164062 C 264.199219 18.761719 263.839844 18.324219 263.523438 17.851562 C 263.207031 17.378906 262.941406 16.878906 262.722656 16.355469 C 262.507812 15.828125 262.339844 15.289062 262.230469 14.730469 C 262.121094 14.171875 262.0625 13.609375 262.0625 13.039062 C 262.0625 12.472656 262.121094 11.90625 262.230469 11.351562 C 262.339844 10.792969 262.507812 10.25 262.722656 9.726562 C 262.941406 9.199219 263.207031 8.699219 263.523438 8.226562 C 263.839844 7.753906 264.199219 7.316406 264.605469 6.914062 C 265.007812 6.511719 265.445312 6.15625 265.917969 5.839844 C 266.390625 5.523438 266.890625 5.253906 267.417969 5.039062 C 267.941406 4.820312 268.484375 4.65625 269.042969 4.546875 C 269.601562 4.433594 270.164062 4.378906 270.734375 4.378906 L 300.921875 4.378906 C 301.492188 4.378906 302.054688 4.433594 302.613281 4.542969 C 303.171875 4.652344 303.714844 4.816406 304.242188 5.035156 C 304.769531 5.253906 305.269531 5.519531 305.742188 5.835938 C 306.21875 6.148438 306.65625 6.507812 307.058594 6.910156 C 307.464844 7.3125 307.824219 7.75 308.140625 8.222656 C 308.457031 8.699219 308.722656 9.195312 308.941406 9.722656 C 309.160156 10.25 309.324219 10.789062 309.4375 11.347656 C 309.546875 11.90625 309.605469 12.46875 309.605469 13.039062 C 309.605469 13.609375 309.546875 14.171875 309.4375 14.730469 C 309.324219 15.289062 309.160156 15.832031 308.941406 16.355469 C 308.722656 16.882812 308.457031 17.382812 308.140625 17.855469 C 307.824219 18.328125 307.464844 18.765625 307.058594 19.167969 C 306.65625 19.570312 306.21875 19.929688 305.742188 20.246094 C 305.269531 20.5625 304.769531 20.828125 304.242188 21.042969 C 303.714844 21.261719 303.171875 21.425781 302.613281 21.535156 C 302.054688 21.648438 301.492188 21.703125 300.921875 21.699219 Z M 300.921875 21.699219 " fill-opacity="1" fill-rule="nonzero"/><path fill="#e6e6e6" d="M 425.855469 300.078125 L 18.988281 300.078125 C 18.769531 300.078125 18.582031 300 18.425781 299.847656 C 18.273438 299.691406 18.195312 299.507812 18.195312 299.289062 C 18.195312 299.070312 18.273438 298.882812 18.425781 298.726562 C 18.582031 298.574219 18.769531 298.496094 18.988281 298.496094 L 425.855469 298.496094 C 426.074219 298.496094 426.261719 298.574219 426.414062 298.726562 C 426.570312 298.882812 426.648438 299.070312 426.648438 299.289062 C 426.648438 299.507812 426.570312 299.691406 426.414062 299.847656 C 426.261719 300 426.074219 300.078125 425.855469 300.078125 Z M 425.855469 300.078125 " fill-opacity="1" fill-rule="nonzero"/><path fill="#e6e6e6" d="M 425.855469 331.730469 L 18.988281 331.730469 C 18.769531 331.730469 18.582031 331.652344 18.425781 331.496094 C 18.273438 331.34375 18.195312 331.15625 18.195312 330.9375 C 18.195312 330.71875 18.273438 330.53125 18.425781 330.378906 C 18.582031 330.222656 18.769531 330.144531 18.988281 330.144531 L 425.855469 330.144531 C 426.074219 330.144531 426.261719 330.222656 426.414062 330.378906 C 426.570312 330.53125 426.648438 330.71875 426.648438 330.9375 C 426.648438 331.15625 426.570312 331.34375 426.414062 331.496094 C 426.261719 331.652344 426.074219 331.730469 425.855469 331.730469 Z M 425.855469 331.730469 " fill-opacity="1" fill-rule="nonzero"/><path fill="#e6e6e6" d="M 425.855469 363.378906 L 18.988281 363.378906 C 18.769531 363.378906 18.582031 363.300781 18.425781 363.148438 C 18.273438 362.992188 18.195312 362.804688 18.195312 362.585938 C 18.195312 362.367188 18.273438 362.183594 18.425781 362.027344 C 18.582031 361.871094 18.769531 361.796875 18.988281 361.796875 L 425.855469 361.796875 C 426.074219 361.796875 426.261719 361.871094 426.414062 362.027344 C 426.570312 362.183594 426.648438 362.367188 426.648438 362.585938 C 426.648438 362.804688 426.570312 362.992188 426.414062 363.148438 C 426.261719 363.300781 426.074219 363.378906 425.855469 363.378906 Z M 425.855469 363.378906 " fill-opacity="1" fill-rule="nonzero"/><path fill="#e6e6e6" d="M 425.855469 395.027344 L 18.988281 395.027344 C 18.769531 395.027344 18.582031 394.949219 18.425781 394.796875 C 18.273438 394.640625 18.195312 394.457031 18.195312 394.238281 C 18.195312 394.019531 18.273438 393.832031 18.425781 393.675781 C 18.582031 393.523438 18.769531 393.445312 18.988281 393.445312 L 425.855469 393.445312 C 426.074219 393.445312 426.261719 393.523438 426.414062 393.675781 C 426.570312 393.832031 426.648438 394.019531 426.648438 394.238281 C 426.648438 394.457031 426.570312 394.640625 426.414062 394.796875 C 426.261719 394.949219 426.074219 395.027344 425.855469 395.027344 Z M 425.855469 395.027344 " fill-opacity="1" fill-rule="nonzero"/><path fill="#e6e6e6" d="M 425.855469 426.675781 L 18.988281 426.675781 C 18.769531 426.675781 18.582031 426.601562 18.425781 426.445312 C 18.273438 426.292969 18.195312 426.105469 18.195312 425.886719 C 18.195312 425.667969 18.273438 425.480469 18.425781 425.328125 C 18.582031 425.171875 18.769531 425.09375 18.988281 425.09375 L 425.855469 425.09375 C 426.074219 425.09375 426.261719 425.171875 426.414062 425.328125 C 426.570312 425.480469 426.648438 425.667969 426.648438 425.886719 C 426.648438 426.105469 426.570312 426.292969 426.414062 426.445312 C 426.261719 426.601562 426.074219 426.675781 425.855469 426.675781 Z M 425.855469 426.675781 " fill-opacity="1" fill-rule="nonzero"/><path fill="#e6e6e6" d="M 115.335938 427.910156 C 115.117188 427.910156 114.929688 427.832031 114.777344 427.679688 C 114.621094 427.523438 114.542969 427.339844 114.542969 427.121094 L 113.75 298.941406 C 113.75 298.722656 113.824219 298.535156 113.976562 298.378906 C 114.132812 298.222656 114.316406 298.144531 114.535156 298.144531 L 114.542969 298.144531 C 114.757812 298.144531 114.945312 298.222656 115.101562 298.375 C 115.253906 298.527344 115.332031 298.714844 115.335938 298.929688 L 116.125 427.113281 C 116.128906 427.332031 116.050781 427.519531 115.898438 427.671875 C 115.742188 427.828125 115.558594 427.90625 115.339844 427.910156 Z M 115.335938 427.910156 " fill-opacity="1" fill-rule="nonzero"/><path fill="#e6e6e6" d="M 225.441406 427.910156 C 225.222656 427.910156 225.035156 427.832031 224.882812 427.679688 C 224.726562 427.523438 224.648438 427.339844 224.648438 427.121094 L 223.855469 298.941406 C 223.855469 298.722656 223.929688 298.535156 224.085938 298.378906 C 224.238281 298.222656 224.425781 298.144531 224.644531 298.144531 L 224.648438 298.144531 C 224.867188 298.144531 225.050781 298.222656 225.207031 298.375 C 225.359375 298.527344 225.4375 298.714844 225.441406 298.929688 L 226.234375 427.113281 C 226.234375 427.332031 226.15625 427.519531 226.003906 427.671875 C 225.851562 427.828125 225.664062 427.90625 225.445312 427.910156 Z M 225.441406 427.910156 " fill-opacity="1" fill-rule="nonzero"/><path fill="#e6e6e6" d="M 335.546875 427.910156 C 335.328125 427.910156 335.140625 427.832031 334.988281 427.679688 C 334.832031 427.523438 334.753906 427.339844 334.753906 427.121094 L 333.960938 298.941406 C 333.960938 298.722656 334.035156 298.535156 334.191406 298.378906 C 334.34375 298.222656 334.53125 298.144531 334.75 298.144531 L 334.753906 298.144531 C 334.972656 298.144531 335.15625 298.222656 335.3125 298.375 C 335.46875 298.527344 335.546875 298.714844 335.546875 298.929688 L 336.339844 427.113281 C 336.339844 427.332031 336.261719 427.519531 336.109375 427.671875 C 335.957031 427.828125 335.769531 427.90625 335.550781 427.910156 Z M 335.546875 427.910156 " fill-opacity="1" fill-rule="nonzero"/><g clip-path="url(#53211a2cf3)"><path fill="#e6e6e6" d="M 102.265625 273.21875 L 27.011719 273.21875 C 26.308594 273.222656 25.613281 273.152344 24.921875 273.015625 C 24.234375 272.878906 23.566406 272.679688 22.914062 272.410156 C 22.265625 272.140625 21.648438 271.8125 21.066406 271.425781 C 20.480469 271.035156 19.941406 270.589844 19.441406 270.09375 C 18.945312 269.601562 18.503906 269.058594 18.113281 268.476562 C 17.722656 267.894531 17.390625 267.277344 17.121094 266.628906 C 16.851562 265.980469 16.648438 265.3125 16.511719 264.625 C 16.375 263.9375 16.308594 263.242188 16.308594 262.539062 C 16.308594 261.835938 16.375 261.140625 16.511719 260.453125 C 16.648438 259.765625 16.851562 259.097656 17.121094 258.449219 C 17.390625 257.800781 17.722656 257.183594 18.113281 256.601562 C 18.503906 256.019531 18.945312 255.476562 19.441406 254.980469 C 19.941406 254.484375 20.480469 254.042969 21.066406 253.652344 C 21.648438 253.265625 22.265625 252.933594 22.914062 252.667969 C 23.566406 252.398438 24.234375 252.195312 24.921875 252.058594 C 25.613281 251.925781 26.308594 251.855469 27.011719 251.855469 L 102.265625 251.855469 C 102.964844 251.859375 103.660156 251.925781 104.347656 252.0625 C 105.035156 252.203125 105.703125 252.40625 106.351562 252.671875 C 107 252.941406 107.617188 253.269531 108.199219 253.660156 C 108.785156 254.050781 109.324219 254.492188 109.820312 254.988281 C 110.316406 255.484375 110.757812 256.023438 111.148438 256.609375 C 111.535156 257.191406 111.867188 257.804688 112.132812 258.453125 C 112.402344 259.101562 112.605469 259.769531 112.742188 260.457031 C 112.878906 261.144531 112.945312 261.835938 112.949219 262.539062 C 112.945312 263.238281 112.878906 263.933594 112.742188 264.621094 C 112.605469 265.308594 112.402344 265.976562 112.132812 266.625 C 111.867188 267.273438 111.535156 267.886719 111.148438 268.46875 C 110.757812 269.054688 110.316406 269.59375 109.820312 270.089844 C 109.324219 270.585938 108.785156 271.027344 108.199219 271.417969 C 107.617188 271.804688 107 272.136719 106.351562 272.40625 C 105.703125 272.671875 105.035156 272.875 104.347656 273.011719 C 103.660156 273.152344 102.964844 273.21875 102.265625 273.21875 Z M 102.265625 273.21875 " fill-opacity="1" fill-rule="nonzero"/></g><path fill="#6d0076" d="M 79.730469 324.253906 L 49.542969 324.253906 C 48.972656 324.257812 48.410156 324.203125 47.851562 324.089844 C 47.292969 323.980469 46.75 323.816406 46.222656 323.601562 C 45.695312 323.382812 45.195312 323.117188 44.722656 322.800781 C 44.246094 322.484375 43.808594 322.125 43.40625 321.722656 C 43.003906 321.320312 42.640625 320.882812 42.324219 320.410156 C 42.007812 319.9375 41.742188 319.4375 41.523438 318.910156 C 41.304688 318.386719 41.140625 317.84375 41.027344 317.285156 C 40.917969 316.726562 40.863281 316.164062 40.863281 315.59375 C 40.863281 315.027344 40.917969 314.460938 41.027344 313.902344 C 41.140625 313.34375 41.304688 312.804688 41.523438 312.277344 C 41.742188 311.75 42.007812 311.253906 42.324219 310.78125 C 42.640625 310.304688 43.003906 309.867188 43.40625 309.464844 C 43.808594 309.0625 44.246094 308.707031 44.722656 308.390625 C 45.195312 308.074219 45.695312 307.808594 46.222656 307.589844 C 46.75 307.371094 47.292969 307.207031 47.851562 307.097656 C 48.410156 306.988281 48.972656 306.933594 49.542969 306.933594 L 79.730469 306.933594 C 80.300781 306.933594 80.867188 306.988281 81.425781 307.097656 C 81.984375 307.207031 82.527344 307.371094 83.054688 307.589844 C 83.578125 307.808594 84.078125 308.074219 84.554688 308.390625 C 85.027344 308.707031 85.464844 309.0625 85.871094 309.464844 C 86.273438 309.867188 86.632812 310.304688 86.949219 310.78125 C 87.265625 311.253906 87.535156 311.75 87.753906 312.277344 C 87.972656 312.804688 88.136719 313.34375 88.246094 313.902344 C 88.359375 314.460938 88.414062 315.027344 88.414062 315.59375 C 88.414062 316.164062 88.359375 316.726562 88.246094 317.285156 C 88.136719 317.84375 87.972656 318.386719 87.753906 318.910156 C 87.535156 319.4375 87.265625 319.9375 86.949219 320.410156 C 86.632812 320.882812 86.273438 321.320312 85.871094 321.722656 C 85.464844 322.125 85.027344 322.484375 84.554688 322.800781 C 84.078125 323.117188 83.578125 323.382812 83.054688 323.601562 C 82.527344 323.816406 81.984375 323.980469 81.425781 324.089844 C 80.867188 324.203125 80.300781 324.257812 79.730469 324.253906 Z M 79.730469 324.253906 " fill-opacity="1" fill-rule="nonzero"/><path fill="#6d0076" d="M 185.085938 355.113281 L 154.898438 355.113281 C 154.328125 355.113281 153.765625 355.058594 153.207031 354.949219 C 152.648438 354.835938 152.105469 354.671875 151.578125 354.453125 C 151.054688 354.238281 150.554688 353.96875 150.082031 353.65625 C 149.605469 353.339844 149.167969 352.980469 148.765625 352.578125 C 148.363281 352.175781 148.003906 351.738281 147.6875 351.265625 C 147.371094 350.792969 147.105469 350.292969 146.886719 349.769531 C 146.667969 349.242188 146.503906 348.699219 146.394531 348.144531 C 146.28125 347.585938 146.226562 347.023438 146.226562 346.453125 C 146.226562 345.882812 146.28125 345.320312 146.394531 344.765625 C 146.503906 344.207031 146.667969 343.664062 146.886719 343.140625 C 147.105469 342.613281 147.371094 342.113281 147.6875 341.640625 C 148.003906 341.167969 148.363281 340.730469 148.765625 340.328125 C 149.167969 339.925781 149.605469 339.566406 150.082031 339.253906 C 150.554688 338.9375 151.054688 338.667969 151.578125 338.453125 C 152.105469 338.234375 152.648438 338.070312 153.207031 337.957031 C 153.765625 337.847656 154.328125 337.792969 154.898438 337.792969 L 185.085938 337.792969 C 185.652344 337.792969 186.21875 337.847656 186.777344 337.957031 C 187.335938 338.066406 187.878906 338.230469 188.40625 338.449219 C 188.933594 338.664062 189.433594 338.933594 189.90625 339.246094 C 190.382812 339.5625 190.820312 339.921875 191.222656 340.324219 C 191.625 340.726562 191.988281 341.164062 192.304688 341.636719 C 192.621094 342.109375 192.886719 342.609375 193.105469 343.136719 C 193.324219 343.660156 193.488281 344.203125 193.601562 344.761719 C 193.710938 345.320312 193.765625 345.882812 193.765625 346.453125 C 193.765625 347.023438 193.710938 347.585938 193.601562 348.144531 C 193.488281 348.703125 193.324219 349.246094 193.105469 349.769531 C 192.886719 350.296875 192.621094 350.796875 192.304688 351.269531 C 191.988281 351.742188 191.625 352.179688 191.222656 352.582031 C 190.820312 352.984375 190.382812 353.34375 189.90625 353.660156 C 189.433594 353.972656 188.933594 354.242188 188.40625 354.457031 C 187.878906 354.675781 187.335938 354.839844 186.777344 354.949219 C 186.21875 355.058594 185.652344 355.113281 185.085938 355.113281 Z M 185.085938 355.113281 " fill-opacity="1" fill-rule="nonzero"/><path fill="#6d0076" d="M 185.085938 389.136719 L 154.898438 389.136719 C 154.328125 389.140625 153.761719 389.085938 153.203125 388.972656 C 152.644531 388.863281 152.101562 388.699219 151.574219 388.484375 C 151.046875 388.265625 150.546875 388 150.074219 387.683594 C 149.597656 387.367188 149.160156 387.007812 148.753906 386.605469 C 148.351562 386.203125 147.992188 385.765625 147.675781 385.292969 C 147.359375 384.820312 147.089844 384.320312 146.871094 383.796875 C 146.652344 383.269531 146.488281 382.726562 146.378906 382.167969 C 146.265625 381.609375 146.210938 381.046875 146.210938 380.476562 C 146.210938 379.90625 146.265625 379.34375 146.378906 378.785156 C 146.488281 378.226562 146.652344 377.683594 146.871094 377.160156 C 147.089844 376.632812 147.359375 376.132812 147.675781 375.660156 C 147.992188 375.1875 148.351562 374.75 148.753906 374.347656 C 149.160156 373.945312 149.597656 373.585938 150.074219 373.269531 C 150.546875 372.953125 151.046875 372.6875 151.574219 372.46875 C 152.101562 372.253906 152.644531 372.089844 153.203125 371.980469 C 153.761719 371.871094 154.328125 371.816406 154.898438 371.816406 L 185.085938 371.816406 C 185.65625 371.816406 186.21875 371.871094 186.777344 371.980469 C 187.335938 372.089844 187.878906 372.253906 188.40625 372.46875 C 188.933594 372.6875 189.433594 372.953125 189.910156 373.269531 C 190.382812 373.585938 190.824219 373.945312 191.226562 374.347656 C 191.628906 374.75 191.988281 375.1875 192.308594 375.660156 C 192.625 376.132812 192.890625 376.632812 193.109375 377.160156 C 193.328125 377.683594 193.492188 378.226562 193.605469 378.785156 C 193.714844 379.34375 193.773438 379.90625 193.773438 380.476562 C 193.773438 381.046875 193.714844 381.609375 193.605469 382.167969 C 193.492188 382.726562 193.328125 383.269531 193.109375 383.796875 C 192.890625 384.320312 192.625 384.820312 192.308594 385.292969 C 191.988281 385.765625 191.628906 386.203125 191.226562 386.605469 C 190.824219 387.007812 190.382812 387.367188 189.910156 387.683594 C 189.433594 388 188.933594 388.265625 188.40625 388.484375 C 187.878906 388.699219 187.335938 388.863281 186.777344 388.972656 C 186.21875 389.085938 185.65625 389.140625 185.085938 389.136719 Z M 185.085938 389.136719 " fill-opacity="1" fill-rule="nonzero"/><path fill="#6d0076" d="M 297.566406 325.046875 L 267.378906 325.046875 C 266.8125 325.046875 266.246094 324.992188 265.6875 324.878906 C 265.128906 324.769531 264.589844 324.605469 264.0625 324.386719 C 263.535156 324.171875 263.035156 323.902344 262.5625 323.585938 C 262.089844 323.269531 261.652344 322.914062 261.25 322.511719 C 260.847656 322.109375 260.488281 321.671875 260.171875 321.199219 C 259.855469 320.726562 259.585938 320.226562 259.371094 319.699219 C 259.152344 319.175781 258.988281 318.632812 258.875 318.074219 C 258.765625 317.519531 258.710938 316.953125 258.710938 316.386719 C 258.710938 315.816406 258.765625 315.253906 258.875 314.695312 C 258.988281 314.140625 259.152344 313.597656 259.371094 313.070312 C 259.585938 312.546875 259.855469 312.046875 260.171875 311.574219 C 260.488281 311.101562 260.847656 310.664062 261.25 310.261719 C 261.652344 309.859375 262.089844 309.5 262.5625 309.183594 C 263.035156 308.867188 263.535156 308.601562 264.0625 308.382812 C 264.589844 308.167969 265.128906 308.003906 265.6875 307.890625 C 266.246094 307.78125 266.8125 307.726562 267.378906 307.726562 L 297.566406 307.726562 C 298.136719 307.722656 298.703125 307.777344 299.261719 307.890625 C 299.820312 308 300.363281 308.164062 300.890625 308.382812 C 301.414062 308.597656 301.914062 308.863281 302.390625 309.179688 C 302.863281 309.496094 303.300781 309.855469 303.707031 310.257812 C 304.109375 310.660156 304.46875 311.097656 304.785156 311.570312 C 305.101562 312.042969 305.371094 312.542969 305.589844 313.070312 C 305.808594 313.59375 305.972656 314.136719 306.082031 314.695312 C 306.195312 315.253906 306.25 315.816406 306.25 316.386719 C 306.25 316.957031 306.195312 317.519531 306.082031 318.078125 C 305.972656 318.636719 305.808594 319.175781 305.589844 319.703125 C 305.371094 320.230469 305.101562 320.730469 304.785156 321.203125 C 304.46875 321.675781 304.109375 322.113281 303.707031 322.515625 C 303.300781 322.917969 302.863281 323.277344 302.390625 323.589844 C 301.914062 323.90625 301.414062 324.175781 300.890625 324.390625 C 300.363281 324.609375 299.820312 324.773438 299.261719 324.882812 C 298.703125 324.992188 298.136719 325.046875 297.566406 325.046875 Z M 297.566406 325.046875 " fill-opacity="1" fill-rule="nonzero"/><path fill="#e6e6e6" d="M 209.070312 273.617188 L 133.816406 273.617188 C 133.117188 273.617188 132.421875 273.546875 131.730469 273.410156 C 131.042969 273.273438 130.375 273.070312 129.726562 272.800781 C 129.078125 272.53125 128.464844 272.203125 127.882812 271.8125 C 127.296875 271.421875 126.757812 270.980469 126.261719 270.484375 C 125.765625 269.988281 125.324219 269.449219 124.933594 268.867188 C 124.542969 268.28125 124.214844 267.667969 123.945312 267.019531 C 123.679688 266.371094 123.476562 265.703125 123.339844 265.015625 C 123.203125 264.328125 123.132812 263.636719 123.132812 262.933594 C 123.132812 262.234375 123.203125 261.539062 123.339844 260.851562 C 123.476562 260.164062 123.679688 259.496094 123.945312 258.847656 C 124.214844 258.203125 124.542969 257.585938 124.933594 257.003906 C 125.324219 256.421875 125.765625 255.878906 126.261719 255.386719 C 126.757812 254.890625 127.296875 254.445312 127.882812 254.054688 C 128.464844 253.667969 129.078125 253.335938 129.726562 253.070312 C 130.375 252.800781 131.042969 252.597656 131.730469 252.460938 C 132.421875 252.324219 133.117188 252.253906 133.816406 252.253906 L 209.070312 252.253906 C 209.769531 252.253906 210.464844 252.324219 211.15625 252.460938 C 211.84375 252.597656 212.511719 252.800781 213.160156 253.070312 C 213.808594 253.335938 214.421875 253.667969 215.003906 254.054688 C 215.589844 254.445312 216.128906 254.890625 216.625 255.386719 C 217.121094 255.878906 217.5625 256.421875 217.953125 257.003906 C 218.34375 257.585938 218.671875 258.203125 218.941406 258.847656 C 219.207031 259.496094 219.410156 260.164062 219.546875 260.851562 C 219.683594 261.539062 219.753906 262.234375 219.753906 262.933594 C 219.753906 263.636719 219.683594 264.328125 219.546875 265.015625 C 219.410156 265.703125 219.207031 266.371094 218.941406 267.019531 C 218.671875 267.667969 218.34375 268.28125 217.953125 268.867188 C 217.5625 269.449219 217.121094 269.988281 216.625 270.484375 C 216.128906 270.980469 215.589844 271.421875 215.003906 271.8125 C 214.421875 272.203125 213.808594 272.53125 213.160156 272.800781 C 212.511719 273.070312 211.84375 273.273438 211.15625 273.410156 C 210.464844 273.546875 209.769531 273.617188 209.070312 273.617188 Z M 209.070312 273.617188 " fill-opacity="1" fill-rule="nonzero"/><path fill="#e6e6e6" d="M 315.875 274.40625 L 240.621094 274.40625 C 239.921875 274.40625 239.226562 274.339844 238.535156 274.203125 C 237.847656 274.066406 237.179688 273.863281 236.53125 273.59375 C 235.882812 273.324219 235.265625 272.996094 234.683594 272.605469 C 234.097656 272.21875 233.558594 271.773438 233.0625 271.277344 C 232.566406 270.78125 232.121094 270.242188 231.730469 269.660156 C 231.339844 269.078125 231.011719 268.460938 230.742188 267.8125 C 230.472656 267.164062 230.269531 266.496094 230.132812 265.808594 C 229.996094 265.121094 229.929688 264.425781 229.929688 263.726562 C 229.929688 263.023438 229.996094 262.328125 230.132812 261.640625 C 230.269531 260.953125 230.472656 260.285156 230.742188 259.636719 C 231.011719 258.988281 231.339844 258.375 231.730469 257.792969 C 232.121094 257.207031 232.566406 256.667969 233.0625 256.171875 C 233.558594 255.675781 234.097656 255.234375 234.683594 254.84375 C 235.265625 254.453125 235.882812 254.125 236.53125 253.855469 C 237.179688 253.589844 237.847656 253.386719 238.535156 253.25 C 239.226562 253.113281 239.921875 253.042969 240.621094 253.042969 L 315.875 253.042969 C 316.578125 253.042969 317.273438 253.113281 317.960938 253.25 C 318.648438 253.386719 319.320312 253.589844 319.96875 253.855469 C 320.617188 254.125 321.234375 254.453125 321.816406 254.84375 C 322.398438 255.234375 322.941406 255.675781 323.4375 256.171875 C 323.933594 256.667969 324.375 257.207031 324.765625 257.792969 C 325.15625 258.375 325.488281 258.988281 325.753906 259.636719 C 326.023438 260.285156 326.226562 260.953125 326.363281 261.640625 C 326.5 262.328125 326.570312 263.023438 326.570312 263.726562 C 326.570312 264.425781 326.5 265.121094 326.363281 265.808594 C 326.226562 266.496094 326.023438 267.164062 325.753906 267.8125 C 325.488281 268.460938 325.15625 269.078125 324.765625 269.660156 C 324.375 270.242188 323.933594 270.78125 323.4375 271.277344 C 322.941406 271.773438 322.398438 272.21875 321.816406 272.605469 C 321.234375 272.996094 320.617188 273.324219 319.96875 273.59375 C 319.320312 273.863281 318.648438 274.066406 317.960938 274.203125 C 317.273438 274.339844 316.578125 274.40625 315.875 274.40625 Z M 315.875 274.40625 " fill-opacity="1" fill-rule="nonzero"/><path fill="#e6e6e6" d="M 422.679688 274.40625 L 347.429688 274.40625 C 346.726562 274.40625 346.03125 274.339844 345.34375 274.203125 C 344.652344 274.066406 343.984375 273.863281 343.335938 273.59375 C 342.6875 273.324219 342.070312 272.996094 341.488281 272.605469 C 340.902344 272.21875 340.363281 271.773438 339.867188 271.277344 C 339.371094 270.78125 338.925781 270.242188 338.535156 269.660156 C 338.148438 269.078125 337.816406 268.460938 337.546875 267.8125 C 337.28125 267.164062 337.078125 266.496094 336.941406 265.808594 C 336.804688 265.121094 336.734375 264.425781 336.734375 263.726562 C 336.734375 263.023438 336.804688 262.328125 336.941406 261.640625 C 337.078125 260.953125 337.28125 260.285156 337.546875 259.636719 C 337.816406 258.988281 338.148438 258.375 338.535156 257.792969 C 338.925781 257.207031 339.371094 256.667969 339.867188 256.171875 C 340.363281 255.675781 340.902344 255.234375 341.488281 254.84375 C 342.070312 254.453125 342.6875 254.125 343.335938 253.855469 C 343.984375 253.589844 344.652344 253.386719 345.34375 253.25 C 346.03125 253.113281 346.726562 253.042969 347.429688 253.042969 L 422.679688 253.042969 C 423.382812 253.042969 424.078125 253.113281 424.765625 253.25 C 425.457031 253.386719 426.125 253.589844 426.773438 253.855469 C 427.421875 254.125 428.039062 254.453125 428.621094 254.84375 C 429.207031 255.234375 429.746094 255.675781 430.242188 256.171875 C 430.738281 256.667969 431.183594 257.207031 431.574219 257.792969 C 431.960938 258.375 432.292969 258.988281 432.5625 259.636719 C 432.828125 260.285156 433.03125 260.953125 433.167969 261.640625 C 433.304688 262.328125 433.375 263.023438 433.375 263.726562 C 433.375 264.425781 433.304688 265.121094 433.167969 265.808594 C 433.03125 266.496094 432.828125 267.164062 432.5625 267.8125 C 432.292969 268.460938 431.960938 269.078125 431.574219 269.660156 C 431.183594 270.242188 430.738281 270.78125 430.242188 271.277344 C 429.746094 271.773438 429.207031 272.21875 428.621094 272.605469 C 428.039062 272.996094 427.421875 273.324219 426.773438 273.59375 C 426.125 273.863281 425.457031 274.066406 424.765625 274.203125 C 424.078125 274.339844 423.382812 274.40625 422.679688 274.40625 Z M 422.679688 274.40625 " fill-opacity="1" fill-rule="nonzero"/><path fill="#ffffff" d="M 59.863281 269.171875 L 67.074219 257.429688 L 64.902344 257.148438 L 69.292969 268.175781 C 69.335938 268.324219 69.410156 268.460938 69.507812 268.582031 C 69.605469 268.703125 69.722656 268.804688 69.859375 268.882812 C 69.992188 268.957031 70.136719 269.007812 70.292969 269.027344 C 70.449219 269.050781 70.601562 269.042969 70.753906 269.003906 C 70.90625 268.964844 71.042969 268.894531 71.164062 268.796875 C 71.289062 268.699219 71.390625 268.582031 71.46875 268.445312 C 71.546875 268.308594 71.59375 268.164062 71.613281 268.007812 C 71.632812 267.851562 71.625 267.699219 71.582031 267.546875 L 67.195312 256.515625 C 67.125 256.292969 67 256.105469 66.820312 255.953125 C 66.640625 255.800781 66.433594 255.710938 66.199219 255.679688 C 65.964844 255.648438 65.742188 255.683594 65.53125 255.785156 C 65.316406 255.882812 65.148438 256.035156 65.023438 256.234375 L 57.8125 267.972656 C 57.011719 269.277344 59.066406 270.472656 59.863281 269.171875 Z M 59.863281 269.171875 " fill-opacity="1" fill-rule="nonzero"/><path fill="#ffffff" d="M 61.492188 265.21875 L 67.78125 265.125 C 67.9375 265.125 68.089844 265.09375 68.234375 265.035156 C 68.382812 264.972656 68.511719 264.890625 68.621094 264.777344 C 68.734375 264.667969 68.820312 264.539062 68.878906 264.390625 C 68.941406 264.246094 68.96875 264.09375 68.96875 263.9375 C 68.96875 263.78125 68.941406 263.628906 68.878906 263.484375 C 68.820312 263.339844 68.734375 263.210938 68.621094 263.097656 C 68.511719 262.988281 68.382812 262.902344 68.234375 262.839844 C 68.089844 262.78125 67.9375 262.75 67.78125 262.75 L 61.492188 262.84375 C 61.335938 262.84375 61.183594 262.875 61.039062 262.9375 C 60.894531 262.996094 60.765625 263.082031 60.652344 263.191406 C 60.542969 263.304688 60.457031 263.433594 60.394531 263.578125 C 60.335938 263.722656 60.304688 263.875 60.304688 264.03125 C 60.304688 264.191406 60.335938 264.339844 60.394531 264.488281 C 60.457031 264.632812 60.542969 264.761719 60.652344 264.871094 C 60.765625 264.984375 60.894531 265.070312 61.039062 265.128906 C 61.183594 265.1875 61.335938 265.21875 61.492188 265.21875 Z M 61.492188 265.21875 " fill-opacity="1" fill-rule="nonzero"/><path fill="#ffffff" d="M 175.5625 262.660156 C 175.398438 262.335938 175.1875 262.042969 174.929688 261.785156 C 175.132812 261.53125 175.289062 261.257812 175.402344 260.957031 C 175.519531 260.65625 175.582031 260.34375 175.597656 260.023438 C 175.613281 259.703125 175.578125 259.386719 175.496094 259.078125 C 175.410156 258.769531 175.28125 258.476562 175.105469 258.207031 C 174.496094 257.300781 173.660156 256.714844 172.601562 256.445312 C 171.382812 256.207031 170.167969 256.234375 168.957031 256.523438 C 168.878906 256.503906 168.796875 256.496094 168.714844 256.496094 C 168.558594 256.496094 168.40625 256.527344 168.261719 256.589844 C 168.117188 256.652344 167.992188 256.738281 167.878906 256.847656 C 167.769531 256.957031 167.683594 257.085938 167.621094 257.230469 C 167.5625 257.375 167.527344 257.523438 167.527344 257.679688 C 167.386719 260.800781 167.246094 263.917969 167.105469 267.039062 C 167.058594 267.109375 167.019531 267.1875 166.988281 267.269531 C 166.921875 267.550781 166.949219 267.820312 167.070312 268.085938 C 167.097656 268.390625 167.222656 268.652344 167.449219 268.863281 C 167.675781 269.070312 167.941406 269.179688 168.253906 269.183594 C 168.5625 269.1875 168.824219 269.078125 169.046875 268.863281 C 171.394531 269.039062 173.851562 268.660156 175.257812 266.53125 C 175.640625 265.957031 175.863281 265.324219 175.917969 264.636719 C 175.972656 263.945312 175.851562 263.289062 175.5625 262.660156 Z M 172.992188 265.589844 C 172.511719 266 171.964844 266.289062 171.355469 266.460938 C 170.746094 266.628906 170.128906 266.660156 169.503906 266.554688 C 169.621094 263.960938 169.738281 261.363281 169.855469 258.769531 C 170.921875 258.59375 172.140625 258.5 172.878906 259.21875 C 173 259.335938 173.101562 259.46875 173.175781 259.617188 C 173.183594 259.640625 173.242188 259.9375 173.238281 259.855469 C 173.25 260.027344 173.253906 259.9375 173.207031 260.097656 C 173.097656 260.453125 172.863281 260.667969 172.5 260.742188 C 172.34375 260.746094 172.191406 260.78125 172.046875 260.84375 C 171.90625 260.902344 171.777344 260.988281 171.667969 261.101562 C 171.554688 261.210938 171.46875 261.335938 171.410156 261.480469 C 171.347656 261.625 171.3125 261.773438 171.308594 261.929688 C 171.3125 262.085938 171.34375 262.238281 171.40625 262.382812 C 171.464844 262.527344 171.550781 262.65625 171.664062 262.765625 C 171.773438 262.875 171.902344 262.960938 172.046875 263.023438 C 172.191406 263.085938 172.339844 263.117188 172.5 263.117188 C 172.75 263.125 172.972656 263.207031 173.167969 263.371094 C 173.359375 263.53125 173.484375 263.734375 173.535156 263.980469 C 173.628906 264.609375 173.449219 265.148438 172.992188 265.589844 Z M 172.992188 265.589844 " fill-opacity="1" fill-rule="nonzero"/><path fill="#ffffff" d="M 280.371094 257.128906 C 279.945312 257.207031 279.527344 257.324219 279.117188 257.472656 C 278.710938 257.625 278.320312 257.808594 277.941406 258.023438 C 277.566406 258.242188 277.210938 258.488281 276.875 258.765625 C 276.539062 259.042969 276.230469 259.347656 275.949219 259.675781 C 275.667969 260.007812 275.414062 260.359375 275.191406 260.730469 C 274.96875 261.105469 274.777344 261.492188 274.621094 261.898438 C 274.464844 262.304688 274.34375 262.71875 274.257812 263.144531 C 274.171875 263.570312 274.125 264 274.109375 264.4375 C 274.074219 265.363281 274.214844 266.265625 274.53125 267.140625 C 274.847656 268.011719 275.316406 268.792969 275.941406 269.484375 C 277.359375 270.933594 279.324219 270.949219 281.203125 270.699219 C 281.355469 270.691406 281.507812 270.660156 281.648438 270.597656 C 281.792969 270.535156 281.921875 270.449219 282.03125 270.339844 C 282.140625 270.230469 282.226562 270.101562 282.289062 269.960938 C 282.351562 269.816406 282.382812 269.667969 282.390625 269.511719 C 282.390625 268.9375 281.84375 268.238281 281.203125 268.324219 C 279.976562 268.488281 278.492188 268.753906 277.5625 267.742188 C 276.734375 266.722656 276.378906 265.558594 276.496094 264.25 C 276.539062 263.652344 276.683594 263.078125 276.925781 262.527344 C 277.167969 261.976562 277.492188 261.484375 277.902344 261.042969 C 278.3125 260.605469 278.78125 260.246094 279.316406 259.96875 C 279.847656 259.6875 280.410156 259.507812 281.003906 259.417969 C 281.15625 259.375 281.292969 259.304688 281.417969 259.207031 C 281.539062 259.113281 281.640625 258.996094 281.71875 258.859375 C 281.796875 258.722656 281.84375 258.574219 281.863281 258.417969 C 281.882812 258.265625 281.875 258.109375 281.832031 257.957031 C 281.789062 257.808594 281.71875 257.671875 281.621094 257.550781 C 281.523438 257.429688 281.40625 257.328125 281.269531 257.25 C 281.132812 257.171875 280.988281 257.125 280.832031 257.101562 C 280.675781 257.082031 280.523438 257.089844 280.371094 257.128906 Z M 280.371094 257.128906 " fill-opacity="1" fill-rule="nonzero"/><path fill="#ffffff" d="M 381.351562 258.25 L 381.65625 269.695312 C 381.660156 269.878906 381.703125 270.050781 381.785156 270.214844 C 381.871094 270.378906 381.984375 270.519531 382.132812 270.628906 C 382.277344 270.742188 382.441406 270.816406 382.621094 270.851562 C 382.800781 270.886719 382.980469 270.882812 383.160156 270.839844 C 383.953125 270.671875 384.695312 270.378906 385.386719 269.957031 C 386.082031 269.535156 386.679688 269.011719 387.191406 268.382812 C 387.703125 267.753906 388.089844 267.054688 388.359375 266.292969 C 388.628906 265.527344 388.761719 264.742188 388.757812 263.933594 C 388.753906 263.121094 388.613281 262.335938 388.339844 261.574219 C 388.0625 260.8125 387.667969 260.121094 387.152344 259.496094 C 386.636719 258.871094 386.03125 258.351562 385.335938 257.933594 C 384.640625 257.519531 383.894531 257.234375 383.101562 257.074219 C 382.949219 257.035156 382.796875 257.027344 382.640625 257.050781 C 382.484375 257.070312 382.339844 257.121094 382.203125 257.195312 C 382.070312 257.273438 381.953125 257.375 381.855469 257.496094 C 381.757812 257.617188 381.683594 257.753906 381.640625 257.902344 C 381.597656 258.054688 381.589844 258.207031 381.609375 258.363281 C 381.628906 258.519531 381.679688 258.667969 381.757812 258.800781 C 381.832031 258.9375 381.933594 259.054688 382.058594 259.152344 C 382.179688 259.25 382.320312 259.320312 382.46875 259.363281 C 383.011719 259.453125 383.523438 259.632812 384.003906 259.902344 C 384.484375 260.171875 384.902344 260.515625 385.261719 260.933594 C 385.621094 261.351562 385.894531 261.816406 386.085938 262.332031 C 386.28125 262.847656 386.378906 263.382812 386.382812 263.929688 C 386.386719 264.480469 386.292969 265.015625 386.109375 265.535156 C 385.921875 266.050781 385.652344 266.519531 385.300781 266.945312 C 384.949219 267.367188 384.53125 267.714844 384.054688 267.992188 C 383.582031 268.265625 383.070312 268.453125 382.527344 268.550781 L 384.03125 269.695312 L 383.726562 258.25 C 383.6875 256.726562 381.3125 256.71875 381.351562 258.25 Z M 381.351562 258.25 " fill-opacity="1" fill-rule="nonzero"/><g fill="#000000" fill-opacity="1"><g transform="translate(137.264515, 161.416891)"><g><path d="M 5.53125 0.140625 C 4.65625 0.140625 3.875 -0.0546875 3.1875 -0.453125 C 2.5 -0.859375 1.960938 -1.445312 1.578125 -2.21875 C 1.191406 -2.988281 1 -3.914062 1 -5 C 1 -6.082031 1.191406 -7.007812 1.578125 -7.78125 C 1.960938 -8.550781 2.5 -9.132812 3.1875 -9.53125 C 3.875 -9.9375 4.65625 -10.140625 5.53125 -10.140625 C 6.457031 -10.140625 7.226562 -9.960938 7.84375 -9.609375 C 8.46875 -9.253906 8.914062 -8.722656 9.1875 -8.015625 L 8.4375 -7.515625 L 8.265625 -7.515625 C 7.992188 -8.085938 7.640625 -8.488281 7.203125 -8.71875 C 6.765625 -8.957031 6.207031 -9.078125 5.53125 -9.078125 C 4.894531 -9.078125 4.332031 -8.9375 3.84375 -8.65625 C 3.363281 -8.382812 2.976562 -7.941406 2.6875 -7.328125 C 2.394531 -6.722656 2.25 -5.945312 2.25 -5 C 2.25 -4.050781 2.394531 -3.269531 2.6875 -2.65625 C 2.976562 -2.050781 3.363281 -1.609375 3.84375 -1.328125 C 4.332031 -1.054688 4.894531 -0.921875 5.53125 -0.921875 C 6.25 -0.921875 6.835938 -1.082031 7.296875 -1.40625 C 7.753906 -1.726562 8.097656 -2.253906 8.328125 -2.984375 L 8.5 -2.984375 L 9.28125 -2.59375 C 9.039062 -1.707031 8.597656 -1.03125 7.953125 -0.5625 C 7.316406 -0.09375 6.507812 0.140625 5.53125 0.140625 Z M 5.53125 0.140625 "/></g></g></g><g fill="#000000" fill-opacity="1"><g transform="translate(147.061778, 161.416891)"><g><path d="M 4.328125 0.140625 C 3.617188 0.140625 3 -0.0078125 2.46875 -0.3125 C 1.945312 -0.613281 1.539062 -1.054688 1.25 -1.640625 C 0.96875 -2.222656 0.828125 -2.929688 0.828125 -3.765625 C 0.828125 -4.597656 0.96875 -5.304688 1.25 -5.890625 C 1.539062 -6.484375 1.945312 -6.929688 2.46875 -7.234375 C 3 -7.535156 3.617188 -7.6875 4.328125 -7.6875 C 5.035156 -7.6875 5.648438 -7.535156 6.171875 -7.234375 C 6.703125 -6.929688 7.109375 -6.484375 7.390625 -5.890625 C 7.679688 -5.304688 7.828125 -4.597656 7.828125 -3.765625 C 7.828125 -2.929688 7.679688 -2.222656 7.390625 -1.640625 C 7.109375 -1.054688 6.703125 -0.613281 6.171875 -0.3125 C 5.648438 -0.0078125 5.035156 0.140625 4.328125 0.140625 Z M 4.328125 -0.859375 C 5.078125 -0.859375 5.648438 -1.09375 6.046875 -1.5625 C 6.453125 -2.039062 6.65625 -2.773438 6.65625 -3.765625 C 6.65625 -4.765625 6.453125 -5.5 6.046875 -5.96875 C 5.648438 -6.445312 5.078125 -6.6875 4.328125 -6.6875 C 3.578125 -6.6875 3 -6.445312 2.59375 -5.96875 C 2.195312 -5.488281 2 -4.753906 2 -3.765625 C 2 -2.773438 2.195312 -2.039062 2.59375 -1.5625 C 3 -1.09375 3.578125 -0.859375 4.328125 -0.859375 Z M 4.328125 -0.859375 "/></g></g></g><g fill="#000000" fill-opacity="1"><g transform="translate(155.711245, 161.416891)"><g><path d="M 1.3125 0 L 1.3125 -7.546875 L 2.375 -7.546875 L 2.375 -6.359375 L 2.515625 -6.328125 C 2.765625 -6.765625 3.082031 -7.097656 3.46875 -7.328125 C 3.863281 -7.566406 4.34375 -7.6875 4.90625 -7.6875 C 5.8125 -7.6875 6.46875 -7.453125 6.875 -6.984375 C 7.28125 -6.523438 7.484375 -5.816406 7.484375 -4.859375 L 7.484375 0 L 6.375 0 L 6.375 -4.828125 C 6.375 -5.285156 6.3125 -5.648438 6.1875 -5.921875 C 6.070312 -6.203125 5.894531 -6.40625 5.65625 -6.53125 C 5.414062 -6.65625 5.097656 -6.71875 4.703125 -6.71875 C 4.015625 -6.71875 3.460938 -6.488281 3.046875 -6.03125 C 2.628906 -5.582031 2.421875 -4.863281 2.421875 -3.875 L 2.421875 0 Z M 1.3125 0 "/></g></g></g><g fill="#000000" fill-opacity="1"><g transform="translate(164.38804, 161.416891)"><g><path d="M 5.09375 -1.203125 L 5.453125 -0.390625 C 5.273438 -0.210938 5.039062 -0.0820312 4.75 0 C 4.46875 0.09375 4.15625 0.140625 3.8125 0.140625 C 2.375 0.140625 1.65625 -0.585938 1.65625 -2.046875 L 1.65625 -6.625 L 0.34375 -6.625 L 0.34375 -7.546875 L 1.65625 -7.546875 L 1.65625 -9.140625 L 2.765625 -9.328125 L 2.765625 -7.546875 L 5.203125 -7.546875 L 5.203125 -6.625 L 2.765625 -6.625 L 2.765625 -2.15625 C 2.765625 -1.289062 3.140625 -0.859375 3.890625 -0.859375 C 4.304688 -0.859375 4.660156 -0.972656 4.953125 -1.203125 Z M 5.09375 -1.203125 "/></g></g></g><g fill="#000000" fill-opacity="1"><g transform="translate(170.127023, 161.416891)"><g><path d="M 1.875 -9 C 1.632812 -9 1.441406 -9.070312 1.296875 -9.21875 C 1.148438 -9.363281 1.078125 -9.550781 1.078125 -9.78125 C 1.078125 -10.007812 1.148438 -10.195312 1.296875 -10.34375 C 1.441406 -10.488281 1.632812 -10.5625 1.875 -10.5625 C 2.113281 -10.5625 2.304688 -10.488281 2.453125 -10.34375 C 2.597656 -10.195312 2.671875 -10.007812 2.671875 -9.78125 C 2.671875 -9.550781 2.597656 -9.363281 2.453125 -9.21875 C 2.304688 -9.070312 2.113281 -9 1.875 -9 Z M 1.3125 0 L 1.3125 -7.546875 L 2.421875 -7.546875 L 2.421875 0 Z M 1.3125 0 "/></g></g></g><g fill="#000000" fill-opacity="1"><g transform="translate(173.864194, 161.416891)"><g><path d="M 1.3125 0 L 1.3125 -7.546875 L 2.375 -7.546875 L 2.375 -6.359375 L 2.515625 -6.328125 C 2.765625 -6.765625 3.082031 -7.097656 3.46875 -7.328125 C 3.863281 -7.566406 4.34375 -7.6875 4.90625 -7.6875 C 5.8125 -7.6875 6.46875 -7.453125 6.875 -6.984375 C 7.28125 -6.523438 7.484375 -5.816406 7.484375 -4.859375 L 7.484375 0 L 6.375 0 L 6.375 -4.828125 C 6.375 -5.285156 6.3125 -5.648438 6.1875 -5.921875 C 6.070312 -6.203125 5.894531 -6.40625 5.65625 -6.53125 C 5.414062 -6.65625 5.097656 -6.71875 4.703125 -6.71875 C 4.015625 -6.71875 3.460938 -6.488281 3.046875 -6.03125 C 2.628906 -5.582031 2.421875 -4.863281 2.421875 -3.875 L 2.421875 0 Z M 1.3125 0 "/></g></g></g><g fill="#000000" fill-opacity="1"><g transform="translate(182.540989, 161.416891)"><g><path d="M 3.71875 0.140625 C 2.875 0.140625 2.242188 -0.0820312 1.828125 -0.53125 C 1.410156 -0.976562 1.203125 -1.640625 1.203125 -2.515625 L 1.203125 -7.546875 L 2.3125 -7.546875 L 2.3125 -2.546875 C 2.3125 -1.398438 2.847656 -0.828125 3.921875 -0.828125 C 4.609375 -0.828125 5.148438 -1.050781 5.546875 -1.5 C 5.941406 -1.945312 6.140625 -2.671875 6.140625 -3.671875 L 6.140625 -7.546875 L 7.25 -7.546875 L 7.25 0 L 6.203125 0 L 6.203125 -1.1875 L 6.0625 -1.21875 C 5.800781 -0.757812 5.488281 -0.414062 5.125 -0.1875 C 4.757812 0.03125 4.289062 0.140625 3.71875 0.140625 Z M 3.71875 0.140625 "/></g></g></g><g fill="#000000" fill-opacity="1"><g transform="translate(191.101639, 161.416891)"><g><path d="M 7.1875 -3.515625 L 2 -3.515625 C 2.03125 -2.597656 2.25 -1.925781 2.65625 -1.5 C 3.070312 -1.070312 3.632812 -0.859375 4.34375 -0.859375 C 4.875 -0.859375 5.300781 -0.953125 5.625 -1.140625 C 5.957031 -1.328125 6.21875 -1.628906 6.40625 -2.046875 L 6.5625 -2.046875 L 7.28125 -1.609375 C 7.0625 -1.066406 6.710938 -0.640625 6.234375 -0.328125 C 5.753906 -0.015625 5.125 0.140625 4.34375 0.140625 C 3.613281 0.140625 2.984375 0 2.453125 -0.28125 C 1.929688 -0.570312 1.53125 -1.007812 1.25 -1.59375 C 0.96875 -2.175781 0.828125 -2.898438 0.828125 -3.765625 C 0.828125 -4.617188 0.972656 -5.335938 1.265625 -5.921875 C 1.566406 -6.515625 1.976562 -6.957031 2.5 -7.25 C 3.019531 -7.539062 3.609375 -7.6875 4.265625 -7.6875 C 5.234375 -7.6875 5.988281 -7.410156 6.53125 -6.859375 C 7.070312 -6.316406 7.347656 -5.507812 7.359375 -4.4375 C 7.359375 -4.019531 7.347656 -3.738281 7.328125 -3.59375 Z M 6.25 -4.4375 C 6.238281 -5.238281 6.0625 -5.820312 5.71875 -6.1875 C 5.382812 -6.550781 4.898438 -6.734375 4.265625 -6.734375 C 3.609375 -6.734375 3.09375 -6.550781 2.71875 -6.1875 C 2.34375 -5.820312 2.113281 -5.238281 2.03125 -4.4375 Z M 6.25 -4.4375 "/></g></g></g><g fill="#000000" fill-opacity="1"><g transform="translate(199.136214, 161.416891)"><g><path d="M 3.4375 0.140625 C 2.96875 0.140625 2.53125 0.078125 2.125 -0.046875 C 1.71875 -0.171875 1.375 -0.34375 1.09375 -0.5625 C 0.820312 -0.78125 0.628906 -1.023438 0.515625 -1.296875 L 1.171875 -1.984375 L 1.3125 -1.984375 C 1.5625 -1.609375 1.859375 -1.328125 2.203125 -1.140625 C 2.546875 -0.953125 2.957031 -0.859375 3.4375 -0.859375 C 3.988281 -0.859375 4.410156 -0.960938 4.703125 -1.171875 C 4.992188 -1.390625 5.140625 -1.691406 5.140625 -2.078125 C 5.140625 -2.378906 5.050781 -2.625 4.875 -2.8125 C 4.695312 -3.007812 4.414062 -3.15625 4.03125 -3.25 L 2.75 -3.5625 C 2.070312 -3.726562 1.578125 -3.988281 1.265625 -4.34375 C 0.953125 -4.695312 0.796875 -5.140625 0.796875 -5.671875 C 0.796875 -6.078125 0.898438 -6.429688 1.109375 -6.734375 C 1.316406 -7.035156 1.617188 -7.269531 2.015625 -7.4375 C 2.410156 -7.601562 2.878906 -7.6875 3.421875 -7.6875 C 4.117188 -7.6875 4.664062 -7.585938 5.0625 -7.390625 C 5.457031 -7.203125 5.769531 -6.929688 6 -6.578125 L 5.359375 -5.96875 L 5.234375 -5.96875 C 4.992188 -6.25 4.726562 -6.445312 4.4375 -6.5625 C 4.15625 -6.6875 3.816406 -6.75 3.421875 -6.75 C 2.929688 -6.75 2.550781 -6.660156 2.28125 -6.484375 C 2.019531 -6.304688 1.890625 -6.050781 1.890625 -5.71875 C 1.890625 -5.40625 1.984375 -5.15625 2.171875 -4.96875 C 2.359375 -4.789062 2.679688 -4.644531 3.140625 -4.53125 L 4.390625 -4.21875 C 5.046875 -4.070312 5.519531 -3.816406 5.8125 -3.453125 C 6.101562 -3.085938 6.25 -2.632812 6.25 -2.09375 C 6.25 -1.65625 6.144531 -1.265625 5.9375 -0.921875 C 5.726562 -0.585938 5.410156 -0.328125 4.984375 -0.140625 C 4.566406 0.046875 4.050781 0.140625 3.4375 0.140625 Z M 3.4375 0.140625 "/></g></g></g><g fill="#000000" fill-opacity="1"><g transform="translate(206.104979, 161.416891)"><g/></g></g><g fill="#000000" fill-opacity="1"><g transform="translate(209.534704, 161.416891)"><g><path d="M 4.328125 0.140625 C 3.617188 0.140625 3 -0.0078125 2.46875 -0.3125 C 1.945312 -0.613281 1.539062 -1.054688 1.25 -1.640625 C 0.96875 -2.222656 0.828125 -2.929688 0.828125 -3.765625 C 0.828125 -4.597656 0.96875 -5.304688 1.25 -5.890625 C 1.539062 -6.484375 1.945312 -6.929688 2.46875 -7.234375 C 3 -7.535156 3.617188 -7.6875 4.328125 -7.6875 C 5.035156 -7.6875 5.648438 -7.535156 6.171875 -7.234375 C 6.703125 -6.929688 7.109375 -6.484375 7.390625 -5.890625 C 7.679688 -5.304688 7.828125 -4.597656 7.828125 -3.765625 C 7.828125 -2.929688 7.679688 -2.222656 7.390625 -1.640625 C 7.109375 -1.054688 6.703125 -0.613281 6.171875 -0.3125 C 5.648438 -0.0078125 5.035156 0.140625 4.328125 0.140625 Z M 4.328125 -0.859375 C 5.078125 -0.859375 5.648438 -1.09375 6.046875 -1.5625 C 6.453125 -2.039062 6.65625 -2.773438 6.65625 -3.765625 C 6.65625 -4.765625 6.453125 -5.5 6.046875 -5.96875 C 5.648438 -6.445312 5.078125 -6.6875 4.328125 -6.6875 C 3.578125 -6.6875 3 -6.445312 2.59375 -5.96875 C 2.195312 -5.488281 2 -4.753906 2 -3.765625 C 2 -2.773438 2.195312 -2.039062 2.59375 -1.5625 C 3 -1.09375 3.578125 -0.859375 4.328125 -0.859375 Z M 4.328125 -0.859375 "/></g></g></g><g fill="#000000" fill-opacity="1"><g transform="translate(218.184171, 161.416891)"><g><path d="M 1.3125 0 L 1.3125 -7.546875 L 2.375 -7.546875 L 2.375 -6.359375 L 2.515625 -6.328125 C 2.765625 -6.765625 3.082031 -7.097656 3.46875 -7.328125 C 3.863281 -7.566406 4.34375 -7.6875 4.90625 -7.6875 C 5.8125 -7.6875 6.46875 -7.453125 6.875 -6.984375 C 7.28125 -6.523438 7.484375 -5.816406 7.484375 -4.859375 L 7.484375 0 L 6.375 0 L 6.375 -4.828125 C 6.375 -5.285156 6.3125 -5.648438 6.1875 -5.921875 C 6.070312 -6.203125 5.894531 -6.40625 5.65625 -6.53125 C 5.414062 -6.65625 5.097656 -6.71875 4.703125 -6.71875 C 4.015625 -6.71875 3.460938 -6.488281 3.046875 -6.03125 C 2.628906 -5.582031 2.421875 -4.863281 2.421875 -3.875 L 2.421875 0 Z M 1.3125 0 "/></g></g></g><g fill="#000000" fill-opacity="1"><g transform="translate(226.860967, 161.416891)"><g/></g></g><g fill="#000000" fill-opacity="1"><g transform="translate(230.290692, 161.416891)"><g><path d="M 2.65625 0 L 1.515625 0 L 1.515625 -10 L 2.953125 -10 L 7.828125 -2.359375 L 8 -2.390625 L 8 -10 L 9.140625 -10 L 9.140625 0 L 7.90625 0 L 2.828125 -8.171875 L 2.65625 -8.140625 Z M 2.65625 0 "/></g></g></g><g fill="#000000" fill-opacity="1"><g transform="translate(240.94197, 161.416891)"><g><path d="M 7.1875 -3.515625 L 2 -3.515625 C 2.03125 -2.597656 2.25 -1.925781 2.65625 -1.5 C 3.070312 -1.070312 3.632812 -0.859375 4.34375 -0.859375 C 4.875 -0.859375 5.300781 -0.953125 5.625 -1.140625 C 5.957031 -1.328125 6.21875 -1.628906 6.40625 -2.046875 L 6.5625 -2.046875 L 7.28125 -1.609375 C 7.0625 -1.066406 6.710938 -0.640625 6.234375 -0.328125 C 5.753906 -0.015625 5.125 0.140625 4.34375 0.140625 C 3.613281 0.140625 2.984375 0 2.453125 -0.28125 C 1.929688 -0.570312 1.53125 -1.007812 1.25 -1.59375 C 0.96875 -2.175781 0.828125 -2.898438 0.828125 -3.765625 C 0.828125 -4.617188 0.972656 -5.335938 1.265625 -5.921875 C 1.566406 -6.515625 1.976562 -6.957031 2.5 -7.25 C 3.019531 -7.539062 3.609375 -7.6875 4.265625 -7.6875 C 5.234375 -7.6875 5.988281 -7.410156 6.53125 -6.859375 C 7.070312 -6.316406 7.347656 -5.507812 7.359375 -4.4375 C 7.359375 -4.019531 7.347656 -3.738281 7.328125 -3.59375 Z M 6.25 -4.4375 C 6.238281 -5.238281 6.0625 -5.820312 5.71875 -6.1875 C 5.382812 -6.550781 4.898438 -6.734375 4.265625 -6.734375 C 3.609375 -6.734375 3.09375 -6.550781 2.71875 -6.1875 C 2.34375 -5.820312 2.113281 -5.238281 2.03125 -4.4375 Z M 6.25 -4.4375 "/></g></g></g><g fill="#000000" fill-opacity="1"><g transform="translate(248.976546, 161.416891)"><g><path d="M 1.578125 0 L 0.34375 0 L 2.671875 -3.90625 L 0.453125 -7.546875 L 1.71875 -7.546875 L 3.453125 -4.640625 L 3.609375 -4.640625 L 5.359375 -7.546875 L 6.5625 -7.546875 L 4.40625 -3.90625 L 6.6875 0 L 5.421875 0 L 3.5625 -3.1875 L 3.40625 -3.1875 Z M 1.578125 0 "/></g></g></g><g fill="#000000" fill-opacity="1"><g transform="translate(255.999968, 161.416891)"><g><path d="M 5.09375 -1.203125 L 5.453125 -0.390625 C 5.273438 -0.210938 5.039062 -0.0820312 4.75 0 C 4.46875 0.09375 4.15625 0.140625 3.8125 0.140625 C 2.375 0.140625 1.65625 -0.585938 1.65625 -2.046875 L 1.65625 -6.625 L 0.34375 -6.625 L 0.34375 -7.546875 L 1.65625 -7.546875 L 1.65625 -9.140625 L 2.765625 -9.328125 L 2.765625 -7.546875 L 5.203125 -7.546875 L 5.203125 -6.625 L 2.765625 -6.625 L 2.765625 -2.15625 C 2.765625 -1.289062 3.140625 -0.859375 3.890625 -0.859375 C 4.304688 -0.859375 4.660156 -0.972656 4.953125 -1.203125 Z M 5.09375 -1.203125 "/></g></g></g><g fill="#000000" fill-opacity="1"><g transform="translate(261.738951, 161.416891)"><g/></g></g><g fill="#000000" fill-opacity="1"><g transform="translate(265.168676, 161.416891)"><g><path d="M 5.09375 -10 C 5.78125 -10 6.367188 -9.875 6.859375 -9.625 C 7.347656 -9.375 7.722656 -9.019531 7.984375 -8.5625 C 8.242188 -8.101562 8.375 -7.566406 8.375 -6.953125 C 8.375 -6.328125 8.242188 -5.785156 7.984375 -5.328125 C 7.722656 -4.878906 7.347656 -4.53125 6.859375 -4.28125 C 6.367188 -4.03125 5.78125 -3.90625 5.09375 -3.90625 L 2.6875 -3.90625 L 2.6875 0 L 1.515625 0 L 1.515625 -10 Z M 5.046875 -4.921875 C 6.441406 -4.921875 7.140625 -5.597656 7.140625 -6.953125 C 7.140625 -8.316406 6.441406 -9 5.046875 -9 L 2.6875 -9 L 2.6875 -4.921875 Z M 5.046875 -4.921875 "/></g></g></g><g fill="#000000" fill-opacity="1"><g transform="translate(274.275895, 161.416891)"><g><path d="M 3.109375 0.140625 C 2.367188 0.140625 1.789062 -0.0507812 1.375 -0.4375 C 0.957031 -0.820312 0.75 -1.375 0.75 -2.09375 C 0.75 -2.539062 0.835938 -2.914062 1.015625 -3.21875 C 1.203125 -3.53125 1.488281 -3.78125 1.875 -3.96875 C 2.269531 -4.164062 2.773438 -4.320312 3.390625 -4.4375 C 3.941406 -4.519531 4.359375 -4.617188 4.640625 -4.734375 C 4.929688 -4.847656 5.125 -4.972656 5.21875 -5.109375 C 5.3125 -5.253906 5.359375 -5.4375 5.359375 -5.65625 C 5.359375 -6 5.238281 -6.257812 5 -6.4375 C 4.769531 -6.625 4.398438 -6.71875 3.890625 -6.71875 C 3.398438 -6.71875 2.976562 -6.617188 2.625 -6.421875 C 2.28125 -6.234375 1.960938 -5.953125 1.671875 -5.578125 L 1.53125 -5.578125 L 0.984375 -6.359375 C 1.304688 -6.765625 1.710938 -7.085938 2.203125 -7.328125 C 2.691406 -7.566406 3.253906 -7.6875 3.890625 -7.6875 C 4.773438 -7.6875 5.425781 -7.488281 5.84375 -7.09375 C 6.269531 -6.707031 6.484375 -6.171875 6.484375 -5.484375 L 6.484375 -1.484375 C 6.484375 -1.066406 6.660156 -0.859375 7.015625 -0.859375 C 7.128906 -0.859375 7.242188 -0.878906 7.359375 -0.921875 L 7.453125 -0.890625 L 7.578125 -0.109375 C 7.492188 -0.0546875 7.382812 -0.015625 7.25 0.015625 C 7.125 0.046875 6.988281 0.0625 6.84375 0.0625 C 6.425781 0.0625 6.109375 -0.03125 5.890625 -0.21875 C 5.679688 -0.40625 5.550781 -0.675781 5.5 -1.03125 L 5.359375 -1.046875 C 5.140625 -0.640625 4.847656 -0.335938 4.484375 -0.140625 C 4.117188 0.046875 3.660156 0.140625 3.109375 0.140625 Z M 3.359375 -0.75 C 3.773438 -0.75 4.132812 -0.84375 4.4375 -1.03125 C 4.75 -1.226562 4.988281 -1.5 5.15625 -1.84375 C 5.320312 -2.195312 5.40625 -2.601562 5.40625 -3.0625 L 5.40625 -4.03125 L 5.265625 -4.046875 C 5.097656 -3.929688 4.894531 -3.832031 4.65625 -3.75 C 4.414062 -3.675781 4.078125 -3.609375 3.640625 -3.546875 C 3.203125 -3.484375 2.851562 -3.390625 2.59375 -3.265625 C 2.34375 -3.140625 2.160156 -2.984375 2.046875 -2.796875 C 1.941406 -2.609375 1.890625 -2.375 1.890625 -2.09375 C 1.890625 -1.65625 2.019531 -1.320312 2.28125 -1.09375 C 2.539062 -0.863281 2.898438 -0.75 3.359375 -0.75 Z M 3.359375 -0.75 "/></g></g></g><g fill="#000000" fill-opacity="1"><g transform="translate(282.071347, 161.416891)"><g><path d="M 3.890625 3.203125 C 2.691406 3.203125 1.816406 3.003906 1.265625 2.609375 C 0.722656 2.210938 0.453125 1.6875 0.453125 1.03125 C 0.453125 0.601562 0.578125 0.265625 0.828125 0.015625 C 1.085938 -0.234375 1.460938 -0.414062 1.953125 -0.53125 L 1.953125 -0.671875 C 1.722656 -0.804688 1.550781 -0.960938 1.4375 -1.140625 C 1.320312 -1.316406 1.265625 -1.523438 1.265625 -1.765625 C 1.265625 -2.054688 1.351562 -2.289062 1.53125 -2.46875 C 1.71875 -2.65625 1.992188 -2.800781 2.359375 -2.90625 L 2.359375 -3.046875 C 1.535156 -3.472656 1.125 -4.175781 1.125 -5.15625 C 1.125 -5.644531 1.234375 -6.082031 1.453125 -6.46875 C 1.679688 -6.851562 2.003906 -7.148438 2.421875 -7.359375 C 2.835938 -7.578125 3.320312 -7.6875 3.875 -7.6875 C 4.5 -7.6875 5.023438 -7.546875 5.453125 -7.265625 C 5.609375 -7.441406 5.726562 -7.628906 5.8125 -7.828125 C 5.894531 -8.035156 5.945312 -8.269531 5.96875 -8.53125 L 6.109375 -8.609375 L 7.03125 -8.390625 C 6.976562 -8.015625 6.859375 -7.691406 6.671875 -7.421875 C 6.492188 -7.160156 6.238281 -6.941406 5.90625 -6.765625 L 5.90625 -6.625 C 6.144531 -6.4375 6.320312 -6.210938 6.4375 -5.953125 C 6.550781 -5.691406 6.609375 -5.390625 6.609375 -5.046875 C 6.609375 -4.578125 6.492188 -4.148438 6.265625 -3.765625 C 6.035156 -3.390625 5.710938 -3.09375 5.296875 -2.875 C 4.890625 -2.664062 4.414062 -2.5625 3.875 -2.5625 C 3.8125 -2.5625 3.695312 -2.566406 3.53125 -2.578125 C 3.34375 -2.578125 3.207031 -2.578125 3.125 -2.578125 C 2.882812 -2.578125 2.691406 -2.515625 2.546875 -2.390625 C 2.410156 -2.273438 2.34375 -2.117188 2.34375 -1.921875 C 2.34375 -1.691406 2.414062 -1.519531 2.5625 -1.40625 C 2.71875 -1.289062 2.972656 -1.226562 3.328125 -1.21875 L 5.109375 -1.15625 C 5.878906 -1.125 6.453125 -0.941406 6.828125 -0.609375 C 7.203125 -0.285156 7.390625 0.175781 7.390625 0.78125 C 7.390625 1.238281 7.265625 1.644531 7.015625 2 C 6.773438 2.363281 6.394531 2.65625 5.875 2.875 C 5.351562 3.09375 4.691406 3.203125 3.890625 3.203125 Z M 3.875 -3.515625 C 4.40625 -3.515625 4.816406 -3.648438 5.109375 -3.921875 C 5.398438 -4.203125 5.546875 -4.59375 5.546875 -5.09375 C 5.546875 -5.613281 5.398438 -6.015625 5.109375 -6.296875 C 4.816406 -6.585938 4.40625 -6.734375 3.875 -6.734375 C 3.332031 -6.734375 2.921875 -6.59375 2.640625 -6.3125 C 2.359375 -6.03125 2.21875 -5.625 2.21875 -5.09375 C 2.21875 -4.59375 2.359375 -4.203125 2.640625 -3.921875 C 2.921875 -3.648438 3.332031 -3.515625 3.875 -3.515625 Z M 3.890625 2.25 C 4.441406 2.25 4.894531 2.1875 5.25 2.0625 C 5.601562 1.9375 5.851562 1.769531 6 1.5625 C 6.15625 1.363281 6.234375 1.140625 6.234375 0.890625 C 6.234375 0.660156 6.191406 0.476562 6.109375 0.34375 C 6.023438 0.207031 5.890625 0.101562 5.703125 0.03125 C 5.515625 -0.03125 5.257812 -0.0703125 4.9375 -0.09375 L 3.25 -0.171875 L 3.015625 -0.171875 C 2.066406 -0.160156 1.59375 0.207031 1.59375 0.9375 C 1.59375 1.8125 2.359375 2.25 3.890625 2.25 Z M 3.890625 2.25 "/></g></g></g><g fill="#000000" fill-opacity="1"><g transform="translate(289.791645, 161.416891)"><g><path d="M 7.1875 -3.515625 L 2 -3.515625 C 2.03125 -2.597656 2.25 -1.925781 2.65625 -1.5 C 3.070312 -1.070312 3.632812 -0.859375 4.34375 -0.859375 C 4.875 -0.859375 5.300781 -0.953125 5.625 -1.140625 C 5.957031 -1.328125 6.21875 -1.628906 6.40625 -2.046875 L 6.5625 -2.046875 L 7.28125 -1.609375 C 7.0625 -1.066406 6.710938 -0.640625 6.234375 -0.328125 C 5.753906 -0.015625 5.125 0.140625 4.34375 0.140625 C 3.613281 0.140625 2.984375 0 2.453125 -0.28125 C 1.929688 -0.570312 1.53125 -1.007812 1.25 -1.59375 C 0.96875 -2.175781 0.828125 -2.898438 0.828125 -3.765625 C 0.828125 -4.617188 0.972656 -5.335938 1.265625 -5.921875 C 1.566406 -6.515625 1.976562 -6.957031 2.5 -7.25 C 3.019531 -7.539062 3.609375 -7.6875 4.265625 -7.6875 C 5.234375 -7.6875 5.988281 -7.410156 6.53125 -6.859375 C 7.070312 -6.316406 7.347656 -5.507812 7.359375 -4.4375 C 7.359375 -4.019531 7.347656 -3.738281 7.328125 -3.59375 Z M 6.25 -4.4375 C 6.238281 -5.238281 6.0625 -5.820312 5.71875 -6.1875 C 5.382812 -6.550781 4.898438 -6.734375 4.265625 -6.734375 C 3.609375 -6.734375 3.09375 -6.550781 2.71875 -6.1875 C 2.34375 -5.820312 2.113281 -5.238281 2.03125 -4.4375 Z M 6.25 -4.4375 "/></g></g></g></svg>